# xmcd
#
# Track frame offsets: 
#        150
#        15059
#        32564
#        47706
#        62551
#        76588
#        108810
#        122232
#        136893
#        153184
#        168595
#        181537
#        200279
#        224764
#        240729
#        252961
#        267505
#        281790
#        299292
#        313458
#
# Disc length: 4386 seconds
#
# Revision: 0
# Processed by: cddbd v1.5.2PL0 Copyright (c) Steve Scherf et al.
# Submitted via: ExactAudioCopyFreeDBPlugin 1.0
#
DISCID=17112014
DTITLE=Jorge and Mateus -  Jorge and Mateus - At The Royal Albert Hall
DYEAR=2013
DGENRE=Country
TTITLE0=Eu Quero Só Você
TTITLE1=Amo Noite e Dia
TTITLE2=Flor
TTITLE3=Seu Astral
TTITLE4=Querendo Te Amar
TTITLE5=Pot-Pourri - Fogueira - Prisão Sem Grade
TTITLE6=De Tanto Te Querer
TTITLE7=Enquanto Houver Razões
TTITLE8=O Que É Que Tem
TTITLE9=Um Dia Eu Te Levo Comigo
TTITLE10=Por Quê?
TTITLE11=Aí Já Era
TTITLE12=A Hora É Agora
TTITLE13=Amor Pra Recomeçar
TTITLE14=Se Eu Chorar
TTITLE15=O Mundo É Tão Pequeno
TTITLE16=Pra Ter o Seu Amor
TTITLE17=Duas Metades
TTITLE18=Mil Anos
TTITLE19=Onde Haja Sol
EXTD=
EXTT0=
EXTT1=
EXTT2=
EXTT3=
EXTT4=
EXTT5=
EXTT6=
EXTT7=
EXTT8=
EXTT9=
EXTT10=
EXTT11=
EXTT12=
EXTT13=
EXTT14=
EXTT15=
EXTT16=
EXTT17=
EXTT18=
EXTT19=
PLAYORDER=
